name rise44.9368peak50.754fall52.0217.mot
datacolumns 19
datarows 23
range 10.14330300000000 10.17996800000000
endheader
time	ground_force1_vx	ground_force1_vy	ground_force1_vz	ground_force1_px	ground_force1_py	ground_force1_pz	ground_force2_vx	ground_force2_vy	ground_force2_vz	ground_force2_px	ground_force2_py	ground_force2_pz	ground_torque1_x	ground_torque1_y	ground_torque1_z	ground_torque2_x	ground_torque2_y	ground_torque2_z	
10.14330300000000	-7.23118400000000	42.71749500000000	-6.37545400000000	0.36268100000000	0.00000000000000	0.10634700000000	-67.33662400000000	824.29516200000000	-56.66953500000000	0.14866100000000	0.00000000000000	-0.08845600000000	0.00000000000000	-4.61767600000000	0.00000000000000	0.00000000000000	-26.48883800000000	0.00000000000000	
10.14496200000000	-7.84581600000000	50.03187100000000	-7.15243800000000	0.36647800000000	0.00000000000000	0.10689200000000	-68.28428800000000	822.05999599999996	-56.19683600000000	0.14767100000000	0.00000000000000	-0.08833500000000	0.00000000000000	-5.24759700000000	0.00000000000000	0.00000000000000	-26.43625500000000	0.00000000000000	
10.14663300000000	-8.30096400000000	57.43163400000000	-7.85184100000000	0.36995800000000	0.00000000000000	0.10738700000000	-69.22914000000000	819.64896899999997	-55.70281500000000	0.14668200000000	0.00000000000000	-0.08821100000000	0.00000000000000	-5.83725700000000	0.00000000000000	0.00000000000000	-26.38065700000000	0.00000000000000	
10.14830000000000	-8.57684600000000	64.82195800000000	-8.45651700000000	0.37316900000000	0.00000000000000	0.10784000000000	-70.16991800000000	817.05888600000003	-55.18748700000000	0.14569500000000	0.00000000000000	-0.08808400000000	0.00000000000000	-6.37386900000000	0.00000000000000	0.00000000000000	-26.32189900000000	0.00000000000000	
10.14996400000000	-8.66237500000000	72.13180100000000	-8.95510700000000	0.37615100000000	0.00000000000000	0.10825500000000	-71.10528700000000	814.28662499999996	-54.65088500000000	0.14470900000000	0.00000000000000	-0.08795500000000	0.00000000000000	-6.84854300000000	0.00000000000000	0.00000000000000	-26.25981900000000	0.00000000000000	
10.15163100000000	-8.55494600000000	79.31606200000000	-9.34210600000000	0.37893800000000	0.00000000000000	0.10863900000000	-72.03383100000001	811.32914800000003	-54.09306900000000	0.14372600000000	0.00000000000000	-0.08782400000000	0.00000000000000	-7.25641800000000	0.00000000000000	0.00000000000000	-26.19424800000000	0.00000000000000	
10.15329600000000	-8.25956600000000	86.35525000000000	-9.61744100000000	0.38155400000000	0.00000000000000	0.10899600000000	-72.95406400000000	808.18350699999996	-53.51412600000000	0.14274500000000	0.00000000000000	-0.08768900000000	0.00000000000000	-7.59643900000000	0.00000000000000	0.00000000000000	-26.12500400000000	0.00000000000000	
10.15496500000000	-7.78751100000000	93.25309700000000	-9.78567000000000	0.38402200000000	0.00000000000000	0.10932900000000	-73.86442400000000	804.84685500000001	-52.91416700000000	0.14176600000000	0.00000000000000	-0.08755200000000	0.00000000000000	-7.87086800000000	0.00000000000000	0.00000000000000	-26.05189300000000	0.00000000000000	
10.15662900000000	-7.15470100000000	100.03266100000000	-9.85494800000000	0.38636000000000	0.00000000000000	0.10964100000000	-74.76327999999999	801.31645600000002	-52.29333500000000	0.14079100000000	0.00000000000000	-0.08741300000000	0.00000000000000	-8.08459100000000	0.00000000000000	0.00000000000000	-25.97471200000000	0.00000000000000	
10.15830100000000	-6.37997300000000	106.73152899999999	-9.83587000000000	0.38858100000000	0.00000000000000	0.10993400000000	-75.64893499999999	797.58969200000001	-51.65180400000000	0.13982000000000	0.00000000000000	-0.08727100000000	0.00000000000000	-8.24433700000000	0.00000000000000	0.00000000000000	-25.89325000000000	0.00000000000000	
10.15996800000000	-5.48342000000000	113.39663600000000	-9.74032200000000	0.39069900000000	0.00000000000000	0.11021000000000	-76.51962600000000	793.66407900000002	-50.98977800000000	0.13885400000000	0.00000000000000	-0.08712600000000	0.00000000000000	-8.35787800000000	0.00000000000000	0.00000000000000	-25.80728500000000	0.00000000000000	
10.16162900000000	-4.48490400000000	120.07922900000000	-9.58042100000000	0.39272300000000	0.00000000000000	0.11047200000000	-77.37352799999999	789.53727200000003	-50.30749600000000	0.13789200000000	0.00000000000000	-0.08697800000000	0.00000000000000	-8.43327500000000	0.00000000000000	0.00000000000000	-25.71659000000000	0.00000000000000	
10.16329900000000	-3.40285100000000	126.83032300000001	-9.36762400000000	0.39466200000000	0.00000000000000	0.11072000000000	-78.20876300000000	785.20708100000002	-49.60523200000000	0.13693600000000	0.00000000000000	-0.08682800000000	0.00000000000000	-8.47823500000000	0.00000000000000	0.00000000000000	-25.62092900000000	0.00000000000000	
10.16496500000000	-2.25336100000000	133.69693200000000	-9.11203500000000	0.39652200000000	0.00000000000000	0.11095700000000	-79.02339800000000	780.67147999999997	-48.88329400000000	0.13598500000000	0.00000000000000	-0.08667500000000	0.00000000000000	-8.49959300000000	0.00000000000000	0.00000000000000	-25.52006100000000	0.00000000000000	
10.16663500000000	-1.04964500000000	140.71923100000001	-8.82194000000000	0.39831100000000	0.00000000000000	0.11118200000000	-79.81545100000000	775.92861900000003	-48.14202900000000	0.13504100000000	0.00000000000000	-0.08652000000000	0.00000000000000	-8.50296200000000	0.00000000000000	0.00000000000000	-25.41374000000000	0.00000000000000	
10.16829500000000	0.19821000000000	147.92870300000001	-8.50355800000000	0.40003200000000	0.00000000000000	0.11139800000000	-80.58290200000000	770.97684200000003	-47.38182100000000	0.13410500000000	0.00000000000000	-0.08636200000000	0.00000000000000	-8.49252400000000	0.00000000000000	0.00000000000000	-25.30171600000000	0.00000000000000	
10.16998000000000	1.48321200000000	155.34721999999999	-8.16099200000000	0.40169100000000	0.00000000000000	0.11160500000000	-81.32368700000001	765.81469300000003	-46.60309300000000	0.13317500000000	0.00000000000000	-0.08620100000000	0.00000000000000	-8.47096800000000	0.00000000000000	0.00000000000000	-25.18373500000000	0.00000000000000	
10.17163700000000	2.80119800000000	162.98698099999999	-7.79635000000000	0.40329000000000	0.00000000000000	0.11180300000000	-82.03571599999999	760.44093499999997	-45.80630600000000	0.13225400000000	0.00000000000000	-0.08603700000000	0.00000000000000	-8.43955500000000	0.00000000000000	0.00000000000000	-25.05954300000000	0.00000000000000	
10.17329800000000	4.15040900000000	170.85113600000000	-7.40998700000000	0.40483200000000	0.00000000000000	0.11199400000000	-82.71687000000000	754.85456199999999	-44.99196300000000	0.13134100000000	0.00000000000000	-0.08587100000000	0.00000000000000	-8.39826900000000	0.00000000000000	0.00000000000000	-24.92888300000000	0.00000000000000	
10.17496300000000	5.53096200000000	178.93492599999999	-7.00083900000000	0.40632100000000	0.00000000000000	0.11217800000000	-83.36500800000000	749.05481199999997	-44.16060300000000	0.13043700000000	0.00000000000000	-0.08570200000000	0.00000000000000	-8.34604100000000	0.00000000000000	0.00000000000000	-24.79149900000000	0.00000000000000	
10.17663600000000	6.94428000000000	187.22716700000001	-6.56680100000000	0.40775700000000	0.00000000000000	0.11235500000000	-83.97798000000000	743.04118100000005	-43.31280700000000	0.12954400000000	0.00000000000000	-0.08553000000000	0.00000000000000	-8.28101300000000	0.00000000000000	0.00000000000000	-24.64713600000000	0.00000000000000	
10.17829600000000	8.39252100000000	195.71189899999999	-6.10511000000000	0.40914300000000	0.00000000000000	0.11252600000000	-84.55362500000000	736.81343400000003	-42.44919500000000	0.12866000000000	0.00000000000000	-0.08535500000000	0.00000000000000	-8.20080400000000	0.00000000000000	0.00000000000000	-24.49554100000000	0.00000000000000	
10.17996800000000	9.87806600000000	204.37003600000000	-5.61271300000000	0.41047900000000	0.00000000000000	0.11269200000000	-85.08978300000000	730.37161600000002	-41.57042600000000	0.12778700000000	0.00000000000000	-0.08517800000000	0.00000000000000	-8.10277900000000	0.00000000000000	0.00000000000000	-24.33646300000000	0.00000000000000	
